<mxfile host="app.diagrams.net" modified="2023-12-18T09:07:06.323Z" agent="Mozilla/5.0 (X11; Linux x86_64) AppleWebKit/537.36 (KHTML, like Gecko) Chrome/120.0.0.0 Safari/537.36 Edg/120.0.0.0" etag="3p9pdOMqTa0ARZUrrwuI" version="22.1.11" type="device">
  <diagram name="第 1 页" id="GCb84eZZopm0yIjXaqis">
    <mxGraphModel dx="1216" dy="709" grid="1" gridSize="10" guides="1" tooltips="1" connect="1" arrows="1" fold="1" page="1" pageScale="1" pageWidth="827" pageHeight="1169" math="0" shadow="0">
      <root>
        <mxCell id="0" />
        <mxCell id="1" parent="0" />
        <mxCell id="h3yMx3SYN8K1OhGMkmtJ-1" value="&lt;font style=&quot;font-size: 32px;&quot;&gt;1&lt;/font&gt;" style="ellipse;whiteSpace=wrap;html=1;aspect=fixed;" vertex="1" parent="1">
          <mxGeometry x="160" y="80" width="80" height="80" as="geometry" />
        </mxCell>
        <mxCell id="h3yMx3SYN8K1OhGMkmtJ-2" value="&lt;font style=&quot;font-size: 32px;&quot;&gt;2&lt;/font&gt;" style="ellipse;whiteSpace=wrap;html=1;aspect=fixed;" vertex="1" parent="1">
          <mxGeometry x="320" y="80" width="80" height="80" as="geometry" />
        </mxCell>
        <mxCell id="h3yMx3SYN8K1OhGMkmtJ-3" value="&lt;font style=&quot;font-size: 32px;&quot;&gt;3&lt;/font&gt;" style="ellipse;whiteSpace=wrap;html=1;aspect=fixed;" vertex="1" parent="1">
          <mxGeometry x="480" y="80" width="80" height="80" as="geometry" />
        </mxCell>
        <mxCell id="h3yMx3SYN8K1OhGMkmtJ-4" value="&lt;font style=&quot;font-size: 32px;&quot;&gt;4&lt;/font&gt;" style="ellipse;whiteSpace=wrap;html=1;aspect=fixed;" vertex="1" parent="1">
          <mxGeometry x="480" y="240" width="80" height="80" as="geometry" />
        </mxCell>
        <mxCell id="h3yMx3SYN8K1OhGMkmtJ-5" value="&lt;font style=&quot;font-size: 32px;&quot;&gt;5&lt;/font&gt;" style="ellipse;whiteSpace=wrap;html=1;aspect=fixed;" vertex="1" parent="1">
          <mxGeometry x="320" y="240" width="80" height="80" as="geometry" />
        </mxCell>
        <mxCell id="h3yMx3SYN8K1OhGMkmtJ-7" value="" style="endArrow=classic;html=1;rounded=0;exitX=1;exitY=0.5;exitDx=0;exitDy=0;entryX=0;entryY=0.5;entryDx=0;entryDy=0;" edge="1" parent="1" source="h3yMx3SYN8K1OhGMkmtJ-1" target="h3yMx3SYN8K1OhGMkmtJ-2">
          <mxGeometry width="50" height="50" relative="1" as="geometry">
            <mxPoint x="390" y="380" as="sourcePoint" />
            <mxPoint x="440" y="330" as="targetPoint" />
          </mxGeometry>
        </mxCell>
        <mxCell id="h3yMx3SYN8K1OhGMkmtJ-8" value="" style="endArrow=classic;html=1;rounded=0;exitX=1;exitY=0.5;exitDx=0;exitDy=0;entryX=0;entryY=0.5;entryDx=0;entryDy=0;" edge="1" parent="1" source="h3yMx3SYN8K1OhGMkmtJ-2" target="h3yMx3SYN8K1OhGMkmtJ-3">
          <mxGeometry width="50" height="50" relative="1" as="geometry">
            <mxPoint x="390" y="380" as="sourcePoint" />
            <mxPoint x="440" y="330" as="targetPoint" />
          </mxGeometry>
        </mxCell>
        <mxCell id="h3yMx3SYN8K1OhGMkmtJ-9" value="" style="endArrow=classic;html=1;rounded=0;exitX=0.5;exitY=1;exitDx=0;exitDy=0;entryX=0.5;entryY=0;entryDx=0;entryDy=0;" edge="1" parent="1" source="h3yMx3SYN8K1OhGMkmtJ-3" target="h3yMx3SYN8K1OhGMkmtJ-4">
          <mxGeometry width="50" height="50" relative="1" as="geometry">
            <mxPoint x="390" y="380" as="sourcePoint" />
            <mxPoint x="440" y="330" as="targetPoint" />
          </mxGeometry>
        </mxCell>
        <mxCell id="h3yMx3SYN8K1OhGMkmtJ-10" value="" style="endArrow=classic;html=1;rounded=0;exitX=0;exitY=0.5;exitDx=0;exitDy=0;entryX=1;entryY=0.5;entryDx=0;entryDy=0;" edge="1" parent="1" source="h3yMx3SYN8K1OhGMkmtJ-4" target="h3yMx3SYN8K1OhGMkmtJ-5">
          <mxGeometry width="50" height="50" relative="1" as="geometry">
            <mxPoint x="390" y="380" as="sourcePoint" />
            <mxPoint x="440" y="330" as="targetPoint" />
          </mxGeometry>
        </mxCell>
        <mxCell id="h3yMx3SYN8K1OhGMkmtJ-11" value="" style="endArrow=classic;html=1;rounded=0;entryX=0.5;entryY=1;entryDx=0;entryDy=0;exitX=0;exitY=0.5;exitDx=0;exitDy=0;" edge="1" parent="1" source="h3yMx3SYN8K1OhGMkmtJ-5" target="h3yMx3SYN8K1OhGMkmtJ-1">
          <mxGeometry width="50" height="50" relative="1" as="geometry">
            <mxPoint x="390" y="380" as="sourcePoint" />
            <mxPoint x="440" y="330" as="targetPoint" />
          </mxGeometry>
        </mxCell>
        <mxCell id="h3yMx3SYN8K1OhGMkmtJ-14" value="" style="endArrow=classic;html=1;rounded=0;fillColor=#f8cecc;strokeColor=#b85450;entryX=0.5;entryY=0;entryDx=0;entryDy=0;exitX=0.5;exitY=0;exitDx=0;exitDy=0;" edge="1" parent="1" source="h3yMx3SYN8K1OhGMkmtJ-3" target="h3yMx3SYN8K1OhGMkmtJ-1">
          <mxGeometry width="50" height="50" relative="1" as="geometry">
            <mxPoint x="520" y="60" as="sourcePoint" />
            <mxPoint x="200" y="60" as="targetPoint" />
            <Array as="points">
              <mxPoint x="360" y="40" />
            </Array>
          </mxGeometry>
        </mxCell>
        <mxCell id="h3yMx3SYN8K1OhGMkmtJ-15" value="" style="endArrow=classic;html=1;rounded=0;fillColor=#f8cecc;strokeColor=#b85450;entryX=0.5;entryY=0;entryDx=0;entryDy=0;exitX=0.5;exitY=1;exitDx=0;exitDy=0;" edge="1" parent="1" source="h3yMx3SYN8K1OhGMkmtJ-1" target="h3yMx3SYN8K1OhGMkmtJ-4">
          <mxGeometry width="50" height="50" relative="1" as="geometry">
            <mxPoint x="260" y="160" as="sourcePoint" />
            <mxPoint x="580" y="220" as="targetPoint" />
          </mxGeometry>
        </mxCell>
      </root>
    </mxGraphModel>
  </diagram>
</mxfile>
